<svg width="195" height="195" viewBox="0 0 195 195" fill="none" xmlns="http://www.w3.org/2000/svg">
<g filter="url(#filter0_dd_158_690)">
<path d="M25 45C25 33.9543 33.9543 25 45 25H150C161.046 25 170 33.9543 170 45V150C170 161.046 161.046 170 150 170H45C33.9543 170 25 161.046 25 150V45Z" fill="#303234"/>
</g>
<mask id="path-2-outside-1_158_690" maskUnits="userSpaceOnUse" x="83.437" y="99.519" width="29" height="20" fill="black">
<rect fill="white" x="83.437" y="99.519" width="29" height="20"/>
<path fill-rule="evenodd" clip-rule="evenodd" d="M100.22 101.42C98.607 100.125 96.2436 100.226 94.7473 101.722C94.7391 101.731 94.731 101.739 94.7229 101.747L85.6403 110.83C84.0359 112.434 84.0359 115.035 85.6403 116.64C87.2448 118.244 89.846 118.244 91.4505 116.64L92.7027 115.387C95.4364 112.654 99.8685 112.654 102.602 115.387L103.854 116.64C105.459 118.244 108.06 118.244 109.665 116.64C111.269 115.035 111.269 112.434 109.665 110.829L100.566 101.73C100.563 101.728 100.56 101.725 100.558 101.722L100.557 101.722C100.449 101.614 100.337 101.513 100.22 101.42Z"/>
</mask>
<g filter="url(#filter1_i_158_690)">
<path fill-rule="evenodd" clip-rule="evenodd" d="M100.22 101.42C98.607 100.125 96.2436 100.226 94.7473 101.722C94.7391 101.731 94.731 101.739 94.7229 101.747L85.6403 110.83C84.0359 112.434 84.0359 115.035 85.6403 116.64C87.2448 118.244 89.846 118.244 91.4505 116.64L92.7027 115.387C95.4364 112.654 99.8685 112.654 102.602 115.387L103.854 116.64C105.459 118.244 108.06 118.244 109.665 116.64C111.269 115.035 111.269 112.434 109.665 110.829L100.566 101.73C100.563 101.728 100.56 101.725 100.558 101.722L100.557 101.722C100.449 101.614 100.337 101.513 100.22 101.42Z" fill="#F18303"/>
</g>
<path d="M94.7473 101.722L95.4544 102.429L95.4544 102.429L94.7473 101.722ZM100.22 101.42L100.846 100.64L100.846 100.64L100.22 101.42ZM94.7229 101.747L95.4301 102.454L95.4358 102.448L94.7229 101.747ZM85.6403 110.83L86.3474 111.537L86.3474 111.537L85.6403 110.83ZM85.6403 116.64L84.9332 117.347L84.9332 117.347L85.6403 116.64ZM91.4505 116.64L92.1576 117.347L92.1576 117.347L91.4505 116.64ZM103.854 116.64L103.147 117.347L103.147 117.347L103.854 116.64ZM109.665 116.64L110.372 117.347L110.372 117.347L109.665 116.64ZM109.665 110.829L110.372 110.122L110.372 110.122L109.665 110.829ZM100.566 101.73L99.8565 102.436L99.8584 102.438L100.566 101.73ZM100.558 101.722L101.265 101.015L101.226 100.977L101.184 100.943L100.558 101.722ZM100.557 101.722L99.8503 102.429L99.8886 102.468L99.9309 102.502L100.557 101.722ZM95.4544 102.429C96.5861 101.298 98.3746 101.221 99.5943 102.2L100.846 100.64C98.8395 99.0295 95.9012 99.1542 94.0402 101.015L95.4544 102.429ZM95.4358 102.448C95.442 102.442 95.4482 102.436 95.4544 102.429L94.0402 101.015C94.0301 101.025 94.02 101.036 94.01 101.046L95.4358 102.448ZM86.3474 111.537L95.43 102.454L94.0158 101.04L84.9332 110.122L86.3474 111.537ZM86.3474 115.933C85.1335 114.719 85.1335 112.751 86.3474 111.537L84.9332 110.122C82.9383 112.117 82.9383 115.352 84.9332 117.347L86.3474 115.933ZM90.7434 115.933C89.5295 117.146 87.5613 117.146 86.3474 115.933L84.9332 117.347C86.9282 119.342 90.1626 119.342 92.1576 117.347L90.7434 115.933ZM91.9956 114.68L90.7434 115.933L92.1576 117.347L93.4098 116.095L91.9956 114.68ZM104.561 115.932L103.309 114.68L101.895 116.095L103.147 117.347L104.561 115.932ZM108.957 115.932C107.744 117.146 105.775 117.146 104.561 115.932L103.147 117.347C105.142 119.342 108.377 119.342 110.372 117.347L108.957 115.932ZM108.957 111.537C110.171 112.75 110.171 114.719 108.957 115.932L110.372 117.347C112.367 115.352 112.367 112.117 110.372 110.122L108.957 111.537ZM99.8584 102.438L108.957 111.537L110.372 110.122L101.273 101.023L99.8584 102.438ZM99.8505 102.43C99.8524 102.432 99.8545 102.434 99.8565 102.436L101.275 101.025C101.271 101.022 101.268 101.019 101.265 101.015L99.8505 102.43ZM99.9309 102.502L99.931 102.502L101.184 100.943L101.184 100.943L99.9309 102.502ZM99.5943 102.2C99.6825 102.271 99.768 102.347 99.8503 102.429L101.265 101.015C101.131 100.881 100.991 100.756 100.846 100.64L99.5943 102.2ZM93.4098 116.095C95.753 113.751 99.552 113.751 101.895 116.095L103.309 114.68C100.185 111.556 95.1198 111.556 91.9956 114.68L93.4098 116.095Z" fill="#333030" fill-opacity="0.5" mask="url(#path-2-outside-1_158_690)"/>
<path d="M47.8203 58.6836H57.2891V56.7852H58.3789C57.7539 55.6523 57.0156 54.4414 56.1641 53.1523L58.1211 52.1211L49.1562 52.4023C48.9375 51.4336 48.6797 50.4102 48.3828 49.332C56.8047 49.2227 63.5156 48.9883 68.5156 48.6289L69.5469 51.6289L58.8828 52.0977C59.8438 53.4414 60.6094 54.5742 61.1797 55.4961L58.7305 56.7852H60.5938V58.6836H70.1797V61.6602H62.5742C64.832 63.9648 67.5938 65.7539 70.8594 67.0273C70.1719 67.793 69.4688 68.7227 68.75 69.8164C65.2734 67.9883 62.5547 65.8008 60.5938 63.2539V71.0352H57.2891V63.2773C55.2812 65.832 52.6172 68.0586 49.2969 69.957C48.7031 69.0352 48.0078 68.0977 47.2109 67.1445C50.3203 65.8242 52.9727 63.9961 55.168 61.6602H47.8203V58.6836ZM66.0781 52.0977L68.6328 53.7852C67.4922 55.1914 66.2266 56.6133 64.8359 58.0508L62.5859 56.1758C63.8672 54.832 65.0312 53.4727 66.0781 52.0977ZM51.3125 52.6836C52.4062 53.8398 53.4766 55.0586 54.5234 56.3398L52.0156 58.168C51.0781 56.8867 50.0703 55.6211 48.9922 54.3711L51.3125 52.6836ZM84.5469 47.9023C84.9609 48.6367 85.3594 49.418 85.7422 50.2461H93.3594V52.2617H85.5312V53.5039H92.5156V55.3789H85.5312V56.6211H92.5156V58.4961H85.5312V59.7383H93.6875V61.8008H77.0469V62.6445H73.9531V55.8594C73.5312 56.2656 73.0938 56.6602 72.6406 57.043C72.2344 55.7773 71.7969 54.6367 71.3281 53.6211C73.2188 52.1523 74.7656 50.293 75.9688 48.043L79.2266 48.7461C78.9609 49.2617 78.6836 49.7617 78.3945 50.2461H82.4141C82.125 49.5977 81.8281 48.9961 81.5234 48.4414L84.5469 47.9023ZM77.0469 52.3086V53.5039H82.4375V52.2617H77.0703L77.0469 52.3086ZM77.0469 56.6211H82.4375V55.3789H77.0469V56.6211ZM77.0469 59.7383H82.4375V58.4961H77.0469V59.7383ZM81.4297 62.3164H84.5234V63.3945H94.3438V65.6445H87.4766C89.3906 66.7227 91.7891 67.5117 94.6719 68.0117C94 69.0742 93.4531 70.0039 93.0312 70.8008C89.3125 69.7773 86.4766 68.2852 84.5234 66.3242V71.1289H81.4297V66.5234C79.3672 68.3359 76.5391 69.8398 72.9453 71.0352C72.5547 70.2227 72.0156 69.3164 71.3281 68.3164C74.3203 67.5742 76.7188 66.6836 78.5234 65.6445H71.8438V63.3945H81.4297V62.3164ZM104.422 54.7227V49.3789H107.141V52.0039H109.297V47.9023H112.32V52.0039H114.5V49.3789H117.219V54.7227H104.422ZM95.5859 52.0977H98.4102C97.8945 50.8555 97.4297 49.832 97.0156 49.0273L99.7812 47.9258C100.203 48.6914 100.773 49.793 101.492 51.2305L99.3477 52.0977H103.344V55.0508H95.5859V52.0977ZM100.391 55.543L103.227 55.8945L101.621 65.2695L103.227 64.9883C103.164 65.4883 103.094 66.4727 103.016 67.9414C100.828 68.3164 98.4375 68.7852 95.8438 69.3477L95.3281 66.2773L99.1836 65.668C99.6289 62.4492 100.031 59.0742 100.391 55.543ZM98.1406 55.6367L99.3594 64.1211L96.7578 64.5664C96.4453 61.6602 96.0625 58.8242 95.6094 56.0586L98.1406 55.6367ZM103.578 56.0586H118.156V58.8242H111.828L111.453 60.3008H117.828V69.207C117.828 70.0273 117.566 70.5586 117.043 70.8008C116.52 71.043 115.902 71.1641 115.191 71.1641C114.676 71.1641 114.156 71.1211 113.633 71.0352L113.48 69.8633H111.43V63.0664H110.094V69.8633H107.797V63.0664H106.461V71.0352H103.695V60.3008H108.535L108.84 58.8242H103.578V56.0586ZM115.062 63.0664H113.727V68.4336C114.164 68.4805 114.441 68.5039 114.559 68.5039C114.91 68.5039 115.078 68.3086 115.062 67.918V63.0664Z" fill="url(#paint0_angular_158_690)"/>
<defs>
<filter id="filter0_dd_158_690" x="0" y="0" width="195" height="195" filterUnits="userSpaceOnUse" color-interpolation-filters="sRGB">
<feFlood flood-opacity="0" result="BackgroundImageFix"/>
<feColorMatrix in="SourceAlpha" type="matrix" values="0 0 0 0 0 0 0 0 0 0 0 0 0 0 0 0 0 0 127 0" result="hardAlpha"/>
<feOffset dx="-9" dy="-9"/>
<feGaussianBlur stdDeviation="8"/>
<feColorMatrix type="matrix" values="0 0 0 0 0.2875 0 0 0 0 0.2875 0 0 0 0 0.2875 0 0 0 0.4 0"/>
<feBlend mode="normal" in2="BackgroundImageFix" result="effect1_dropShadow_158_690"/>
<feColorMatrix in="SourceAlpha" type="matrix" values="0 0 0 0 0 0 0 0 0 0 0 0 0 0 0 0 0 0 127 0" result="hardAlpha"/>
<feOffset dx="9" dy="9"/>
<feGaussianBlur stdDeviation="8"/>
<feColorMatrix type="matrix" values="0 0 0 0 0 0 0 0 0 0 0 0 0 0 0 0 0 0 0.4 0"/>
<feBlend mode="normal" in2="effect1_dropShadow_158_690" result="effect2_dropShadow_158_690"/>
<feBlend mode="normal" in="SourceGraphic" in2="effect2_dropShadow_158_690" result="shape"/>
</filter>
<filter id="filter1_i_158_690" x="83.437" y="99.519" width="30.4309" height="21.3237" filterUnits="userSpaceOnUse" color-interpolation-filters="sRGB">
<feFlood flood-opacity="0" result="BackgroundImageFix"/>
<feBlend mode="normal" in="SourceGraphic" in2="BackgroundImageFix" result="shape"/>
<feColorMatrix in="SourceAlpha" type="matrix" values="0 0 0 0 0 0 0 0 0 0 0 0 0 0 0 0 0 0 127 0" result="hardAlpha"/>
<feOffset dx="2" dy="2"/>
<feGaussianBlur stdDeviation="2"/>
<feComposite in2="hardAlpha" operator="arithmetic" k2="-1" k3="1"/>
<feColorMatrix type="matrix" values="0 0 0 0 0 0 0 0 0 0 0 0 0 0 0 0 0 0 0.7 0"/>
<feBlend mode="normal" in2="shape" result="effect1_innerShadow_158_690"/>
</filter>
<radialGradient id="paint0_angular_158_690" cx="0" cy="0" r="1" gradientUnits="userSpaceOnUse" gradientTransform="translate(110 66) rotate(147.529) scale(26.0768 62.4533)">
<stop offset="0.0954245" stop-color="#E5A66F"/>
<stop offset="0.360594" stop-color="#F94409"/>
</radialGradient>
</defs>
</svg>
