<svg width="195" height="195" viewBox="0 0 195 195" fill="none" xmlns="http://www.w3.org/2000/svg">
<g filter="url(#filter0_dd_72_665)">
<path d="M25 44.9995C25 33.9538 33.9543 24.9995 45 24.9995H150C161.046 24.9995 170 33.9538 170 44.9995V150C170 161.045 161.046 170 150 170H45C33.9543 170 25 161.045 25 150V44.9995Z" fill="white"/>
</g>
<mask id="path-2-outside-1_72_665" maskUnits="userSpaceOnUse" x="82" y="100.264" width="30" height="21" fill="black">
<rect fill="white" x="82" y="100.264" width="30" height="21"/>
<path fill-rule="evenodd" clip-rule="evenodd" d="M96.1051 120.184C95.2861 120.026 94.504 119.629 93.8697 118.995C93.8689 118.994 93.868 118.993 93.8672 118.993L84.2686 109.394C82.5771 107.702 82.5771 104.96 84.2686 103.269C85.9601 101.577 88.7025 101.577 90.3939 103.269L91.9826 104.857C94.7163 107.591 99.1485 107.591 101.882 104.857L103.471 103.269C105.162 101.577 107.905 101.577 109.596 103.269C111.288 104.96 111.288 107.702 109.596 109.394L99.9951 118.995C99.2828 119.707 98.3842 120.12 97.4562 120.232C97.0068 120.287 96.5505 120.271 96.1051 120.184Z"/>
</mask>
<g filter="url(#filter1_i_72_665)">
<path fill-rule="evenodd" clip-rule="evenodd" d="M96.1051 120.184C95.2861 120.026 94.504 119.629 93.8697 118.995C93.8689 118.994 93.868 118.993 93.8672 118.993L84.2686 109.394C82.5771 107.702 82.5771 104.96 84.2686 103.269C85.9601 101.577 88.7025 101.577 90.3939 103.269L91.9826 104.857C94.7163 107.591 99.1485 107.591 101.882 104.857L103.471 103.269C105.162 101.577 107.905 101.577 109.596 103.269C111.288 104.96 111.288 107.702 109.596 109.394L99.9951 118.995C99.2828 119.707 98.3842 120.12 97.4562 120.232C97.0068 120.287 96.5505 120.271 96.1051 120.184Z" fill="#00A4EB"/>
</g>
<path d="M93.8697 118.995L94.5767 118.288L94.5768 118.288L93.8697 118.995ZM96.1051 120.184L95.9151 121.166L96.1051 120.184ZM93.8672 118.993L94.5743 118.285L94.5748 118.286L93.8672 118.993ZM84.2686 109.394L83.5615 110.101H83.5615L84.2686 109.394ZM90.3939 103.269L91.101 102.562L90.3939 103.269ZM103.471 103.269L104.178 103.976L103.471 103.269ZM109.596 103.269L108.889 103.976L109.596 103.269ZM109.596 109.394L110.303 110.101L109.596 109.394ZM99.9951 118.995L99.288 118.288V118.288L99.9951 118.995ZM97.4562 120.232L97.336 119.239L97.4562 120.232ZM101.882 104.857L102.589 105.564L101.882 104.857ZM94.5768 118.288C95.0657 118.777 95.6659 119.081 96.2952 119.203L95.9151 121.166C94.9063 120.971 93.9424 120.482 93.1626 119.702L94.5768 118.288ZM94.5748 118.286C94.5756 118.287 94.5762 118.287 94.5767 118.288L93.1628 119.702C93.1616 119.701 93.1605 119.7 93.1597 119.699L94.5748 118.286ZM84.9757 108.687L94.5743 118.285L93.1601 119.7L83.5615 110.101L84.9757 108.687ZM84.9757 103.976C83.6748 105.277 83.6748 107.386 84.9757 108.687L83.5615 110.101C81.4795 108.019 81.4795 104.643 83.5615 102.562L84.9757 103.976ZM89.6868 103.976C88.3859 102.675 86.2766 102.675 84.9757 103.976L83.5615 102.562C85.6435 100.48 89.019 100.48 91.101 102.562L89.6868 103.976ZM91.2755 105.564L89.6868 103.976L91.101 102.562L92.6898 104.15L91.2755 105.564ZM104.178 103.976L102.589 105.564L101.175 104.15L102.764 102.562L104.178 103.976ZM108.889 103.976C107.588 102.675 105.479 102.675 104.178 103.976L102.764 102.562C104.846 100.48 108.221 100.48 110.303 102.562L108.889 103.976ZM108.889 108.687C110.19 107.386 110.19 105.277 108.889 103.976L110.303 102.562C112.385 104.643 112.385 108.019 110.303 110.101L108.889 108.687ZM99.288 118.288L108.889 108.687L110.303 110.101L100.702 119.702L99.288 118.288ZM97.336 119.239C98.0498 119.153 98.7394 118.837 99.288 118.288L100.702 119.702C99.8262 120.578 98.7186 121.086 97.5765 121.225L97.336 119.239ZM96.2952 119.203C96.6381 119.269 96.9897 119.281 97.336 119.239L97.5765 121.225C97.0239 121.292 96.4629 121.272 95.9151 121.166L96.2952 119.203ZM92.6898 104.15C95.0329 106.493 98.8319 106.493 101.175 104.15L102.589 105.564C99.4651 108.689 94.3997 108.689 91.2755 105.564L92.6898 104.15Z" fill="#EE7777" fill-opacity="0.5" mask="url(#path-2-outside-1_72_665)"/>
<path d="M54.0625 47.7612H59.7109L59.1016 45.7222L62.4297 45.0894C62.7031 45.9956 62.9414 46.8862 63.1445 47.7612H69.0156V52.4956H66.0625V50.6206H57.0156V52.4956H54.0625V47.7612ZM46.5156 49.4253H48.6719V45.2534H51.5078V49.4253H53.1016V52.4253H51.5078V55.9526L53.2656 55.519C53.1406 56.5815 53.1094 57.644 53.1719 58.7065L51.5078 59.1636V65.2456C51.5078 66.0269 51.375 66.6284 51.1094 67.0503C50.8438 67.48 50.4648 67.7378 49.9727 67.8237C49.4883 67.9097 48.5078 67.9722 47.0312 68.0112C46.9062 67.0894 46.6953 66.0659 46.3984 64.9409C46.8047 64.9878 47.3516 65.0112 48.0391 65.0112C48.4453 65.0112 48.6562 64.6831 48.6719 64.0269V59.9136L46.4453 60.4878L46.2578 57.1128C47.0312 56.9644 47.8359 56.7964 48.6719 56.6089V52.4253H46.5156V49.4253ZM60.7188 53.7144L55.375 57.6519L53.4531 55.4487C55 54.4331 56.7188 53.1753 58.6094 51.6753L60.7188 53.7144ZM62.0781 53.7378L64.0703 51.7456C65.5391 52.7612 67.2812 54.0269 69.2969 55.5425L67.2578 57.7456C66.6172 57.23 64.8906 55.894 62.0781 53.7378ZM54.625 57.8862H68.125V60.7456H62.875V64.3081H69.3438V67.1675H53.2188V64.3081H59.875V60.7456H54.625V57.8862ZM74.1719 66.6753H71.3594V57.5112H76.1875V55.7065H70.4453V53.0347H76.1875V50.9487H73.668C73.4727 51.6362 73.2656 52.2769 73.0469 52.8706C72.375 52.5737 71.5625 52.2534 70.6094 51.9097C71.25 50.0347 71.7812 48.019 72.2031 45.8628L74.7578 46.3784L74.3594 48.2769H76.1875V45.019H79.2812V48.2769H83.9688V50.9487H79.2812V53.0347H84.6484V55.7065H79.2812V57.5112H84.1094V63.8628C84.1094 64.7378 83.9258 65.4214 83.5586 65.9136C83.1992 66.4136 82.6211 66.6753 81.8242 66.6987C81.0352 66.73 80.4609 66.7456 80.1016 66.7456C79.9453 65.9019 79.7266 64.9253 79.4453 63.8159C79.8516 63.8628 80.2344 63.8862 80.5938 63.8862C81.0625 63.8862 81.2969 63.6284 81.2969 63.1128V60.2065H79.2812V68.1987H76.1875V60.2065H74.1719V66.6753ZM89.5469 45.0425H92.5469V64.4019C92.5469 65.5737 92.2773 66.4565 91.7383 67.0503C91.1992 67.644 90.4375 67.9565 89.4531 67.9878C88.4688 68.019 87.3359 68.0347 86.0547 68.0347C85.9297 67.1128 85.7266 66.0112 85.4453 64.73C86.6797 64.8081 87.6406 64.8472 88.3281 64.8472C89.1406 64.8472 89.5469 64.3628 89.5469 63.394V45.0425ZM85.3516 46.8706H88.2109V62.5503H85.3516V46.8706ZM103.422 51.7222V46.3784H106.141V49.0034H108.297V44.9019H111.32V49.0034H113.5V46.3784H116.219V51.7222H103.422ZM94.5859 49.0972H97.4102C96.8945 47.855 96.4297 46.8315 96.0156 46.0269L98.7812 44.9253C99.2031 45.6909 99.7734 46.7925 100.492 48.23L98.3477 49.0972H102.344V52.0503H94.5859V49.0972ZM99.3906 52.5425L102.227 52.894L100.621 62.269L102.227 61.9878C102.164 62.4878 102.094 63.4722 102.016 64.9409C99.8281 65.3159 97.4375 65.7847 94.8438 66.3472L94.3281 63.2769L98.1836 62.6675C98.6289 59.4487 99.0312 56.0737 99.3906 52.5425ZM97.1406 52.6362L98.3594 61.1206L95.7578 61.5659C95.4453 58.6597 95.0625 55.8237 94.6094 53.0581L97.1406 52.6362ZM102.578 53.0581H117.156V55.8237H110.828L110.453 57.3003H116.828V66.2065C116.828 67.0269 116.566 67.5581 116.043 67.8003C115.52 68.0425 114.902 68.1636 114.191 68.1636C113.676 68.1636 113.156 68.1206 112.633 68.0347L112.48 66.8628H110.43V60.0659H109.094V66.8628H106.797V60.0659H105.461V68.0347H102.695V57.3003H107.535L107.84 55.8237H102.578V53.0581ZM114.062 60.0659H112.727V65.4331C113.164 65.48 113.441 65.5034 113.559 65.5034C113.91 65.5034 114.078 65.3081 114.062 64.9175V60.0659Z" fill="url(#paint0_angular_72_665)"/>
<defs>
<filter id="filter0_dd_72_665" x="0" y="-0.000488281" width="195" height="195" filterUnits="userSpaceOnUse" color-interpolation-filters="sRGB">
<feFlood flood-opacity="0" result="BackgroundImageFix"/>
<feColorMatrix in="SourceAlpha" type="matrix" values="0 0 0 0 0 0 0 0 0 0 0 0 0 0 0 0 0 0 127 0" result="hardAlpha"/>
<feOffset dx="-9" dy="-9"/>
<feGaussianBlur stdDeviation="8"/>
<feColorMatrix type="matrix" values="0 0 0 0 0.2875 0 0 0 0 0.2875 0 0 0 0 0.2875 0 0 0 0.4 0"/>
<feBlend mode="normal" in2="BackgroundImageFix" result="effect1_dropShadow_72_665"/>
<feColorMatrix in="SourceAlpha" type="matrix" values="0 0 0 0 0 0 0 0 0 0 0 0 0 0 0 0 0 0 127 0" result="hardAlpha"/>
<feOffset dx="9" dy="9"/>
<feGaussianBlur stdDeviation="8"/>
<feColorMatrix type="matrix" values="0 0 0 0 0 0 0 0 0 0 0 0 0 0 0 0 0 0 0.4 0"/>
<feBlend mode="normal" in2="effect1_dropShadow_72_665" result="effect2_dropShadow_72_665"/>
<feBlend mode="normal" in="SourceGraphic" in2="effect2_dropShadow_72_665" result="shape"/>
</filter>
<filter id="filter1_i_72_665" x="82" y="101" width="31.8647" height="22.2637" filterUnits="userSpaceOnUse" color-interpolation-filters="sRGB">
<feFlood flood-opacity="0" result="BackgroundImageFix"/>
<feBlend mode="normal" in="SourceGraphic" in2="BackgroundImageFix" result="shape"/>
<feColorMatrix in="SourceAlpha" type="matrix" values="0 0 0 0 0 0 0 0 0 0 0 0 0 0 0 0 0 0 127 0" result="hardAlpha"/>
<feOffset dx="2" dy="2"/>
<feGaussianBlur stdDeviation="2"/>
<feComposite in2="hardAlpha" operator="arithmetic" k2="-1" k3="1"/>
<feColorMatrix type="matrix" values="0 0 0 0 0 0 0 0 0 0 0 0 0 0 0 0 0 0 0.7 0"/>
<feBlend mode="normal" in2="shape" result="effect1_innerShadow_72_665"/>
</filter>
<radialGradient id="paint0_angular_72_665" cx="0" cy="0" r="1" gradientUnits="userSpaceOnUse" gradientTransform="translate(84 57.9995) rotate(117.759) scale(21.4709 46.332)">
<stop offset="0.171875" stop-color="#60C7E0"/>
<stop offset="0.536458" stop-color="#03A9F1"/>
</radialGradient>
</defs>
</svg>
